<svg width="80" height="80" viewBox="0 0 80 80" fill="none" xmlns="http://www.w3.org/2000/svg">
<rect width="80" height="80" rx="5" fill="#645CAA" fill-opacity="0.1"/>
<path d="M54.6667 25.4471H49L47.65 21.6864C47.5567 21.4291 47.3858 21.2066 47.1606 21.0495C46.9354 20.8923 46.6668 20.8081 46.3917 20.8084H33.6083C33.0458 20.8084 32.5417 21.1604 32.3542 21.6864L31 25.4471H25.3333C23.4917 25.4471 22 26.9298 22 28.7604V47.6467C22 49.4773 23.4917 50.96 25.3333 50.96H54.6667C56.5083 50.96 58 49.4773 58 47.6467V28.7604C58 26.9298 56.5083 25.4471 54.6667 25.4471ZM55 47.6467C55 47.8289 54.85 47.978 54.6667 47.978H25.3333C25.15 47.978 25 47.8289 25 47.6467V28.7604C25 28.5782 25.15 28.4291 25.3333 28.4291H33.1125L33.825 26.4494L34.7792 23.7904H45.2167L46.1708 26.4494L46.8833 28.4291H54.6667C54.85 28.4291 55 28.5782 55 28.7604V47.6467ZM40 31.0798C36.3167 31.0798 33.3333 34.0453 33.3333 37.7066C33.3333 41.3678 36.3167 44.3333 40 44.3333C43.6833 44.3333 46.6667 41.3678 46.6667 37.7066C46.6667 34.0453 43.6833 31.0798 40 31.0798ZM40 41.6826C37.7917 41.6826 36 39.9017 36 37.7066C36 35.5114 37.7917 33.7305 40 33.7305C42.2083 33.7305 44 35.5114 44 37.7066C44 39.9017 42.2083 41.6826 40 41.6826Z" fill="#645CAA"/>
</svg>
