<svg width="24" height="24" viewBox="0 0 24 24" fill="none" xmlns="http://www.w3.org/2000/svg">
<path d="M19.7002 4.00019C17.2002 2.40019 13.9002 2.80019 12.0002 5.10019C10.1002 2.80019 6.80018 2.40019 4.30018 4.00019C2.90018 5.00019 2.00019 6.60018 2.00019 8.30018C1.90019 12.2002 5.30019 15.3002 10.5002 20.1002L10.6002 20.2002C11.4002 20.9002 12.5002 20.9002 13.3002 20.2002L13.4002 20.1002C18.6002 15.3002 22.1002 12.2002 21.9002 8.30018C21.9002 6.60018 21.1002 5.00019 19.7002 4.00019ZM12.1002 18.5002L12.0002 18.6002L11.9002 18.5002C7.10019 14.2002 4.00019 11.3002 4.00019 8.50019C4.00019 6.60019 5.40018 5.00019 7.30018 5.00019C7.40018 5.00019 7.40019 5.00019 7.50019 5.00019C9.10019 5.00019 10.5002 5.90018 11.1002 7.40018H13.0002C13.6002 6.00018 15.0002 5.00019 16.6002 5.00019C18.5002 5.00019 20.1002 6.40018 20.1002 8.30018C20.1002 8.40018 20.1002 8.40019 20.1002 8.50019C20.0002 11.4002 16.9002 14.2002 12.1002 18.5002Z" fill="#1DFBB8"/>
</svg>
