<svg width="51" height="46" viewBox="0 0 51 46" fill="none" xmlns="http://www.w3.org/2000/svg">
<rect x="0.25" y="0.25" width="50.5" height="45.5" rx="1.75" fill="white" stroke="#BDBDBD" stroke-width="0.5"/>
<path d="M34.141 36.367C33.4128 36.3754 32.6926 36.2153 32.0366 35.899C31.3807 35.5828 30.8068 35.119 30.3598 34.5441C29.9129 33.9692 29.6051 33.2986 29.4604 32.5849C29.3158 31.8712 29.3382 31.1337 29.526 30.4301L20.9863 25.5491C20.2659 26.2091 19.3601 26.6318 18.3915 26.7599C17.4229 26.888 16.4384 26.7154 15.5712 26.2655C14.7039 25.8155 13.996 25.1099 13.5431 24.2442C13.0902 23.3785 12.9142 22.3945 13.0391 21.4255C13.164 20.4565 13.5836 19.5493 14.2411 18.8267C14.8987 18.1041 15.7625 17.601 16.7154 17.3856C17.6684 17.1701 18.6645 17.2527 19.569 17.6222C20.4734 17.9917 21.2425 18.6302 21.772 19.4513L29.5246 15.0191C29.4243 14.6401 29.3712 14.2502 29.3664 13.8582C29.3569 12.7508 29.7293 11.6739 30.4208 10.809C31.1124 9.94399 32.0808 9.34372 33.1632 9.10923C34.2455 8.87474 35.3755 9.02034 36.3631 9.52153C37.3506 10.0227 38.1353 10.8489 38.585 11.8609C39.0347 12.8729 39.1219 14.009 38.832 15.0778C38.5422 16.1466 37.8928 17.0829 36.9934 17.729C36.094 18.3751 34.9994 18.6916 33.894 18.6251C32.7886 18.5586 31.7398 18.1133 30.9243 17.3641L22.5346 22.1592C22.5251 22.5138 22.4759 22.8644 22.3859 23.2068L30.9256 28.0865C31.4972 27.562 32.1881 27.1848 32.9385 26.9878C33.6888 26.7908 34.4759 26.7798 35.2314 26.9559C35.9869 27.1319 36.6881 27.4897 37.274 27.9981C37.86 28.5065 38.313 29.1503 38.5938 29.8734C38.8746 30.5966 38.9747 31.3774 38.8854 32.148C38.7962 32.9186 38.5202 33.6558 38.0815 34.2956C37.6427 34.9354 37.0545 35.4585 36.3678 35.8194C35.6811 36.1804 34.9168 36.3684 34.141 36.367V36.367ZM34.141 29.5462C33.5983 29.5462 33.0778 29.7617 32.6941 30.1455C32.3103 30.5292 32.0947 31.0497 32.0947 31.5924C32.0947 32.1351 32.3103 32.6556 32.6941 33.0393C33.0778 33.4231 33.5983 33.6387 34.141 33.6387C34.6837 33.6387 35.2042 33.4231 35.5879 33.0393C35.9717 32.6556 36.1872 32.1351 36.1872 31.5924C36.1872 31.0497 35.9717 30.5292 35.5879 30.1455C35.2042 29.7617 34.6837 29.5462 34.141 29.5462ZM17.7709 19.9969C17.2282 19.9969 16.7077 20.2125 16.324 20.5963C15.9402 20.98 15.7246 21.5005 15.7246 22.0432C15.7246 22.5859 15.9402 23.1064 16.324 23.4901C16.7077 23.8739 17.2282 24.0895 17.7709 24.0895C18.3136 24.0895 18.8341 23.8739 19.2178 23.4901C19.6016 23.1064 19.8172 22.5859 19.8172 22.0432C19.8172 21.5005 19.6016 20.98 19.2178 20.5963C18.8341 20.2125 18.3136 19.9969 17.7709 19.9969ZM34.141 11.8119C33.8723 11.8119 33.6062 11.8648 33.3579 11.9677C33.1097 12.0705 32.8841 12.2212 32.6941 12.4112C32.5041 12.6012 32.3533 12.8268 32.2505 13.0751C32.1477 13.3234 32.0947 13.5894 32.0947 13.8582C32.0947 14.1269 32.1477 14.393 32.2505 14.6412C32.3533 14.8895 32.5041 15.1151 32.6941 15.3051C32.8841 15.4951 33.1097 15.6458 33.3579 15.7487C33.6062 15.8515 33.8723 15.9044 34.141 15.9044C34.6837 15.9044 35.2042 15.6888 35.5879 15.3051C35.9717 14.9213 36.1872 14.4009 36.1872 13.8582C36.1872 13.3155 35.9717 12.795 35.5879 12.4112C35.2042 12.0275 34.6837 11.8119 34.141 11.8119V11.8119Z" fill="#645CAA"/>
</svg>
